<?xml version="1.0" encoding="UTF-8" standalone="no"?>
<svg
   width="443.0351"
   zoomAndPan="magnify"
   viewBox="0 0 332.27632 107.1875"
   height="142.91667"
   preserveAspectRatio="xMidYMid"
   version="1.0"
   id="svg63"
   sodipodi:docname="bitsAndBytesDarkText.svg"
   inkscape:version="1.3 (0e150ed6c4, 2023-07-21)"
   xmlns:inkscape="http://www.inkscape.org/namespaces/inkscape"
   xmlns:sodipodi="http://sodipodi.sourceforge.net/DTD/sodipodi-0.dtd"
   xmlns="http://www.w3.org/2000/svg"
   xmlns:svg="http://www.w3.org/2000/svg">
  <sodipodi:namedview
     id="namedview63"
     pagecolor="#ffffff"
     bordercolor="#000000"
     borderopacity="0.25"
     inkscape:showpageshadow="2"
     inkscape:pageopacity="0.0"
     inkscape:pagecheckerboard="0"
     inkscape:deskcolor="#d1d1d1"
     showgrid="false"
     inkscape:zoom="1.784"
     inkscape:cx="230.1009"
     inkscape:cy="108.74439"
     inkscape:window-width="1920"
     inkscape:window-height="1130"
     inkscape:window-x="3065"
     inkscape:window-y="-6"
     inkscape:window-maximized="1"
     inkscape:current-layer="svg63" />
  <defs
     id="defs3">
    <g
       id="g1" />
    <clipPath
       id="ac0b539229">
      <path
         d="m 70,137 h 52.04688 v 76.19922 H 70 Z m 0,0"
         clip-rule="nonzero"
         id="path1" />
    </clipPath>
    <clipPath
       id="7fa768dc5a">
      <path
         d="M 14.796875,121 H 39 v 83 H 14.796875 Z m 0,0"
         clip-rule="nonzero"
         id="path2" />
    </clipPath>
    <clipPath
       id="40fb7a3e63">
      <path
         d="M 44,105.94922 H 99 V 117 H 44 Z m 0,0"
         clip-rule="nonzero"
         id="path3" />
    </clipPath>
  </defs>
  <g
     clip-path="url(#ac0b539229)"
     id="g4"
     transform="translate(-14.800781,-105.98047)">
    <path
       fill="#54afe6"
       d="m 71.140625,213.16797 c -0.421875,0 -0.769531,-0.32813 -0.792969,-0.75391 -0.01953,-0.4375 0.3125,-0.80859 0.753906,-0.83203 27.683594,-1.40625 49.371098,-24.23437 49.371098,-51.97266 0,-7.28906 -1.48438,-14.33984 -4.41016,-20.96484 -0.17578,-0.39844 0.004,-0.86719 0.40234,-1.04297 0.40235,-0.17578 0.8711,0.004 1.04688,0.40235 3.01562,6.82812 4.54687,14.09375 4.54687,21.60546 0,13.82032 -5.26562,26.95704 -14.82812,36.98047 -9.527345,9.99219 -22.332032,15.87891 -36.050782,16.57813 -0.01563,0 -0.02734,0 -0.03906,0"
       fill-opacity="1"
       fill-rule="nonzero"
       id="path4" />
  </g>
  <g
     clip-path="url(#7fa768dc5a)"
     id="g5"
     transform="translate(-14.800781,-105.98047)">
    <path
       fill="#2c3587"
       d="m 37.367188,203.11719 c -0.160157,0 -0.324219,-0.0469 -0.464844,-0.15235 -6.695313,-4.8789 -12.253906,-11.33203 -16.070313,-18.66406 -3.945312,-7.57422 -6.03125,-16.11328 -6.03125,-24.69141 0,-14.14843 5.480469,-27.5039 15.433594,-37.60937 0.304687,-0.3125 0.808594,-0.31641 1.117187,-0.008 0.3125,0.30469 0.316407,0.80859 0.01172,1.12109 -9.660156,9.80469 -14.976562,22.76563 -14.976562,36.49609 0,16.55469 8.015625,32.28516 21.449219,42.07813 0.351562,0.25781 0.429687,0.75 0.171874,1.10547 -0.152343,0.21484 -0.394531,0.32422 -0.640624,0.32422"
       fill-opacity="1"
       fill-rule="nonzero"
       id="path5" />
  </g>
  <g
     clip-path="url(#40fb7a3e63)"
     id="g6"
     transform="translate(-14.800781,-105.98047)">
    <path
       fill="#2c3587"
       d="m 98.089844,116.69922 c -0.152344,0 -0.308594,-0.0469 -0.445313,-0.14063 -8.640625,-5.88281 -18.742187,-8.99218 -29.214843,-8.99218 -7.890626,0 -15.476563,1.72656 -22.542969,5.13672 -0.394531,0.1914 -0.867188,0.0234 -1.058594,-0.36719 -0.191406,-0.39453 -0.02344,-0.8711 0.371094,-1.0586 7.28125,-3.51562 15.097656,-5.29687 23.230469,-5.29687 10.789062,0 21.203124,3.20312 30.109374,9.26953 0.359376,0.24609 0.453126,0.73828 0.207032,1.10156 -0.152344,0.22266 -0.402344,0.34766 -0.65625,0.34766"
       fill-opacity="1"
       fill-rule="nonzero"
       id="path6" />
  </g>
  <path
     fill="#286291"
     d="m 82.402344,94.101561 c -0.246094,0 -0.488281,-0.11328 -0.644531,-0.32812 -0.253906,-0.35157 -0.175782,-0.84766 0.175781,-1.10547 6.597655,-4.79688 11.917965,-11.21875 15.375005,-18.57422 0.1875,-0.39844 0.66015,-0.56641 1.05468,-0.38281 0.39453,0.1875 0.56641,0.66015 0.37891,1.05468 -3.57031,7.59766 -9.0625,14.23047 -15.875001,19.1836 -0.140625,0.10156 -0.304688,0.15234 -0.464844,0.15234"
     fill-opacity="1"
     fill-rule="nonzero"
     id="path7" />
  <path
     fill="#f1ad53"
     d="m 53.628907,103.45312 c -10.734376,0 -20.964844,-3.375 -29.585938,-9.757809 -4.148438,-3.07031 -7.785156,-6.74609 -10.808594,-10.92578 -3.0625,-4.23438 -5.425781,-8.89063 -7.027344,-13.83594 -0.132812,-0.41797 0.09375,-0.86328 0.511719,-1 0.414063,-0.13281 0.863281,0.0937 0.996094,0.51172 6.46875,19.99219 24.917969,33.421879 45.914063,33.421879 4.292968,0 8.554687,-0.56641 12.664062,-1.6836 0.421875,-0.11719 0.855469,0.13281 0.96875,0.55469 0.117188,0.42187 -0.132812,0.85547 -0.554688,0.97266 -4.242187,1.15625 -8.644531,1.74218 -13.078124,1.74218"
     fill-opacity="1"
     fill-rule="nonzero"
     id="path8" />
  <path
     fill="#f1ad53"
     d="m 102.65235,53.410151 c -0.4336,0 -0.78516,-0.34375 -0.79297,-0.77343 -0.52735,-26.05469 -22.164067,-47.25 -48.230473,-47.25 -15.652344,0 -30.40625,7.66797 -39.457032,20.51562 -0.253906,0.35938 -0.746094,0.44531 -1.105468,0.19141 -0.359376,-0.25 -0.445313,-0.7461 -0.191407,-1.10156 4.511719,-6.40625 10.546875,-11.73047 17.449219,-15.39844 7.132812,-3.78906 15.191406,-5.79297 23.304688,-5.79297 13.109374,0 25.496093,5.07031 34.875002,14.27344 9.36719,9.19531 14.675781,21.45703 14.937501,34.52734 0.0117,0.4375 -0.33594,0.80078 -0.77344,0.80859 -0.008,0 -0.0117,0 -0.0156,0"
     fill-opacity="1"
     fill-rule="nonzero"
     id="path9" />
  <path
     fill="#f1ad53"
     d="m 40.816407,97.800781 c -0.07422,0 -0.152344,-0.008 -0.226563,-0.0312 -9.324219,-2.75781 -17.714844,-8.57031 -23.632813,-16.36328 -6.117187,-8.0586 -9.351562,-17.66406 -9.351562,-27.77735 0,-16.89843 9.257812,-32.41406 24.164062,-40.49218 0.382813,-0.21094 0.863282,-0.0664 1.074219,0.3164 0.207031,0.38672 0.06641,0.86719 -0.320312,1.07422 -14.390625,7.80078 -23.332031,22.78125 -23.332031,39.10156 0,19.54688 13.097656,37.07422 31.847656,42.6211 0.421875,0.125 0.660156,0.5664 0.535156,0.98437 -0.101562,0.34375 -0.417969,0.56641 -0.757812,0.56641"
     fill-opacity="1"
     fill-rule="nonzero"
     id="path10" />
  <path
     fill="#544f9f"
     d="m 53.628907,99.648441 c -0.167969,0 -0.332032,0 -0.5,0 -0.4375,-0.008 -0.785157,-0.36329 -0.78125,-0.80079 0.0039,-0.4375 0.359374,-0.78515 0.792968,-0.78515 0,0 0.0039,0 0.0078,0 0.160156,0 0.320312,0.004 0.480469,0.004 24.503906,0 44.437502,-19.93359 44.437502,-44.4375 0,-24.5039 -19.933596,-44.43749 -44.437502,-44.43749 -0.363282,0 -0.730469,0.004 -1.089844,0.0117 -0.441406,0.008 -0.800782,-0.33593 -0.8125,-0.77343 -0.01172,-0.4375 0.335937,-0.80078 0.773437,-0.8086 0.371094,-0.0117 0.753907,-0.0156 1.128907,-0.0156 25.375,0 46.023442,20.64453 46.023442,46.02343 0,25.375 -20.648442,46.01954 -46.023442,46.01954"
     fill-opacity="1"
     fill-rule="nonzero"
     id="path11" />
  <path
     fill="#f0401e"
     d="m 53.628907,95.847651 c -23.28125,0 -42.21875,-18.9414 -42.21875,-42.21875 0,-23.28125 18.9375,-42.22265 42.21875,-42.22265 3.210937,0 6.414062,0.36719 9.519531,1.08594 0.425781,0.0977 0.691406,0.52343 0.59375,0.94922 -0.09766,0.42578 -0.523438,0.6914 -0.949219,0.59375 -2.988281,-0.69141 -6.070312,-1.04297 -9.164062,-1.04297 -22.40625,0 -40.636719,18.23046 -40.636719,40.63671 0,22.40625 18.230469,40.63282 40.636719,40.63282 4.269531,0 8.476562,-0.66016 12.507812,-1.96875 0.417969,-0.13672 0.863281,0.0937 1,0.50781 0.132812,0.41797 -0.09375,0.86328 -0.511719,1 -4.1875,1.35547 -8.558593,2.04687 -12.996093,2.04687"
     fill-opacity="1"
     fill-rule="nonzero"
     id="path12" />
  <path
     fill="#544f9f"
     d="m 81.480469,85.062501 c -0.214844,0 -0.429688,-0.0898 -0.585938,-0.26172 -0.296874,-0.32031 -0.273437,-0.82031 0.05078,-1.11719 8.464846,-7.69922 13.316406,-18.65625 13.316406,-30.05469 0,-13.36718 -6.59766,-25.89062 -17.652344,-33.49609 -0.359375,-0.25 -0.453125,-0.74219 -0.203125,-1.10156 0.246094,-0.36328 0.738281,-0.45313 1.101563,-0.20703 11.484376,7.90625 18.339846,20.91406 18.339846,34.80468 0,6.03907 -1.25781,11.87891 -3.73438,17.35157 -2.39062,5.28515 -5.78906,9.95312 -10.10156,13.875 -0.152344,0.13672 -0.34375,0.20703 -0.53125,0.20703"
     fill-opacity="1"
     fill-rule="nonzero"
     id="path13" />
  <path
     fill="#f0401e"
     d="m 53.628907,92.042971 c -13.074219,0 -25.136719,-6.57422 -32.269532,-17.58985 -0.238281,-0.36718 -0.132812,-0.85547 0.234375,-1.09375 0.367188,-0.23828 0.859375,-0.13672 1.09375,0.23438 6.839844,10.55859 18.40625,16.86719 30.941407,16.86719 20.308593,0 36.832032,-16.52344 36.832032,-36.83204 0,-1.61718 -0.10547,-3.24609 -0.31641,-4.83593 -0.0586,-0.4336 0.2461,-0.83203 0.67969,-0.89063 0.43359,-0.0586 0.83203,0.25 0.89063,0.6836 0.21875,1.66015 0.32812,3.35546 0.32812,5.04296 0,21.17969 -17.230469,38.41407 -38.414062,38.41407"
     fill-opacity="1"
     fill-rule="nonzero"
     id="path14" />
  <path
     fill="#f1ad53"
     d="m 16.046875,56.207031 c -0.421875,0 -0.773437,-0.32813 -0.792968,-0.75391 -0.02734,-0.60547 -0.04297,-1.21875 -0.04297,-1.82422 0,-21.18359 17.234375,-38.41796 38.417969,-38.41796 15.222656,0 29.03125,9.02343 35.179692,22.98828 0.17578,0.40234 -0.004,0.86718 -0.40625,1.04297 -0.39844,0.17968 -0.86719,-0.004 -1.04297,-0.40625 -5.894535,-13.38672 -19.136722,-22.03907 -33.730472,-22.03907 -20.308594,0 -36.832032,16.51953 -36.832032,36.83203 0,0.58204 0.01172,1.16797 0.03906,1.75 0.02344,0.4375 -0.316407,0.8086 -0.753907,0.82813 -0.01172,0 -0.02344,0 -0.03516,0"
     fill-opacity="1"
     fill-rule="nonzero"
     id="path15" />
  <path
     fill="#5db3e7"
     d="m 53.628907,88.242191 c -19.085938,0 -34.613282,-15.52735 -34.613282,-34.61329 0,-5.53906 1.273438,-10.83593 3.789063,-15.73828 0.199219,-0.39062 0.675781,-0.54297 1.066406,-0.34375 0.386719,0.19922 0.542969,0.67578 0.34375,1.06641 -2.398437,4.67969 -3.617187,9.73047 -3.617187,15.01562 0,18.21094 14.820312,33.02735 33.03125,33.02735 9.90625,0 19.210937,-4.40625 25.523437,-12.08985 0.277344,-0.33984 0.777344,-0.38671 1.117187,-0.10937 0.335938,0.27734 0.386719,0.77734 0.105469,1.11328 -6.613281,8.05469 -16.363281,12.67188 -26.746093,12.67188"
     fill-opacity="1"
     fill-rule="nonzero"
     id="path16" />
  <path
     fill="#54afe6"
     d="m 85.796879,64.871091 c -0.082,0 -0.16407,-0.0117 -0.2461,-0.0391 -0.41406,-0.13672 -0.644529,-0.58203 -0.50781,-1 1.07031,-3.28516 1.61328,-6.71875 1.61328,-10.20313 0,-18.21484 -14.816405,-33.03124 -33.027342,-33.03124 -5.367188,0 -10.695313,1.32421 -15.417969,3.82421 -0.386719,0.20313 -0.863281,0.0586 -1.070313,-0.32812 -0.203125,-0.38672 -0.05859,-0.86719 0.328125,-1.07031 4.949219,-2.6211 10.535157,-4.00782 16.160157,-4.00782 19.085937,0 34.613282,15.52735 34.613282,34.61328 0,3.65235 -0.57031,7.25 -1.69141,10.69532 -0.10937,0.33593 -0.41797,0.54687 -0.7539,0.54687"
     fill-opacity="1"
     fill-rule="nonzero"
     id="path17" />
  <path
     fill="#544f9f"
     d="m 53.628907,84.437501 c -2.394532,0 -4.78125,-0.27735 -7.09375,-0.82422 -0.425782,-0.10156 -0.691407,-0.52734 -0.589844,-0.95313 0.101562,-0.42578 0.527344,-0.6914 0.953125,-0.58984 2.195312,0.51953 4.457031,0.78125 6.730469,0.78125 16.113281,0 29.226562,-13.10937 29.226562,-29.22266 0,-16.11718 -13.113281,-29.22656 -29.226562,-29.22656 -16.117188,0 -29.226563,13.10938 -29.226563,29.22656 0,8.53516 3.734375,16.62891 10.242187,22.20313 0.332032,0.28516 0.371094,0.78516 0.08594,1.11719 -0.28125,0.33203 -0.78125,0.37109 -1.113281,0.0859 -6.863281,-5.875 -10.800781,-14.40625 -10.800781,-23.40625 0,-16.98828 13.824218,-30.8125 30.8125,-30.8125 16.988281,0 30.808593,13.82422 30.808593,30.8125 0,16.98829 -13.820312,30.8086 -30.808593,30.8086"
     fill-opacity="1"
     fill-rule="nonzero"
     id="path18" />
  <path
     fill="#f1ad53"
     d="m 53.628907,80.636721 c -5.476563,0 -10.75,-1.63672 -15.257813,-4.73438 -4.398437,-3.02344 -7.78125,-7.22265 -9.78125,-12.14844 -0.164063,-0.40625 0.03125,-0.86718 0.4375,-1.03125 0.40625,-0.16406 0.867187,0.0312 1.03125,0.4375 3.917969,9.65235 13.171875,15.89063 23.570313,15.89063 14.015624,0 25.421874,-11.40625 25.421874,-25.42188 0,-9.58984 -5.320312,-18.26562 -13.878906,-22.64843 -0.390625,-0.19922 -0.542968,-0.67578 -0.34375,-1.06641 0.199219,-0.39062 0.675782,-0.54297 1.066406,-0.34375 4.363282,2.23438 8.046876,5.61328 10.648438,9.77734 2.675781,4.28125 4.09375,9.21875 4.09375,14.28125 0,14.89063 -12.117188,27.00782 -27.007812,27.00782"
     fill-opacity="1"
     fill-rule="nonzero"
     id="path19" />
  <path
     fill="#5db3e7"
     d="m 28.292969,47.671871 c -0.06641,0 -0.136719,-0.008 -0.203125,-0.0273 -0.421875,-0.11328 -0.675781,-0.54688 -0.5625,-0.96875 1.464844,-5.48828 4.722656,-10.48828 9.171875,-14.07813 4.585938,-3.69531 10.113281,-5.75781 15.984375,-5.96093 0.4375,-0.0156 0.804687,0.32422 0.816406,0.76562 0.01563,0.4336 -0.324219,0.80078 -0.761719,0.81641 -11.082031,0.38672 -20.820312,8.14062 -23.679687,18.86328 -0.09375,0.35547 -0.414063,0.58984 -0.765625,0.58984"
     fill-opacity="1"
     fill-rule="nonzero"
     id="path20" />
  <path
     fill="#f14d27"
     d="m 53.628907,76.832031 c -12.796876,0 -23.203126,-10.41016 -23.203126,-23.20313 0,-12.79687 10.40625,-23.20703 23.203126,-23.20703 12.792968,0 23.203124,10.41016 23.203124,23.20703 0,1.78125 -0.203124,3.5586 -0.601562,5.27735 -0.101562,0.42578 -0.527344,0.6914 -0.953125,0.59375 -0.425781,-0.10156 -0.691406,-0.52735 -0.59375,-0.95313 0.375,-1.60156 0.566406,-3.25781 0.566406,-4.91797 0,-11.92187 -9.699219,-21.62109 -21.621093,-21.62109 -11.921876,0 -21.621094,9.69922 -21.621094,21.62109 0,11.92188 9.699218,21.61719 21.621094,21.61719 3.9375,0 7.792968,-1.0664 11.144531,-3.08984 0.375,-0.22656 0.863281,-0.10547 1.089843,0.26953 0.226563,0.375 0.105469,0.85937 -0.269531,1.08594 -3.601562,2.17187 -7.738281,3.32031 -11.964843,3.32031"
     fill-opacity="1"
     fill-rule="nonzero"
     id="path21" />
  <g
     fill="#333333"
     fill-opacity="1"
     id="g24"
     transform="translate(-14.800781,-105.98047)">
    <g
       transform="translate(139.07827,168.7036)"
       id="g23">
      <g
         id="g22">
        <path
           d="m 2.421875,-17.609375 h 4.96875 c 2.34375,0 4.035156,0.351563 5.078125,1.046875 1.039062,0.699219 1.5625,1.804688 1.5625,3.3125 0,1.042969 -0.292969,1.902344 -0.875,2.578125 -0.585938,0.679687 -1.433594,1.121094 -2.546875,1.328125 v 0.109375 c 2.675781,0.460937 4.015625,1.867187 4.015625,4.21875 0,1.574219 -0.53125,2.804687 -1.59375,3.6875 C 11.96875,-0.441406 10.476562,0 8.5625,0 H 2.421875 Z m 2.046875,7.53125 h 3.375 c 1.445312,0 2.488281,-0.222656 3.125,-0.671875 0.632812,-0.457031 0.953125,-1.222656 0.953125,-2.296875 0,-0.988281 -0.355469,-1.703125 -1.0625,-2.140625 -0.710937,-0.4375 -1.835937,-0.65625 -3.375,-0.65625 H 4.46875 Z m 0,1.734375 V -1.75 h 3.671875 c 1.425781,0 2.5,-0.269531 3.21875,-0.8125 0.71875,-0.550781 1.078125,-1.414062 1.078125,-2.59375 0,-1.09375 -0.371094,-1.894531 -1.109375,-2.40625 C 10.597656,-8.082031 9.476562,-8.34375 7.96875,-8.34375 Z m 0,0"
           id="path22" />
      </g>
    </g>
  </g>
  <g
     fill="#333333"
     fill-opacity="1"
     id="g27"
     transform="translate(-14.800781,-105.98047)">
    <g
       transform="translate(156.8635,168.7036)"
       id="g26">
      <g
         id="g25">
        <path
           d="M 2.421875,0 V -17.609375 H 4.46875 V 0 Z m 0,0"
           id="path24" />
      </g>
    </g>
  </g>
  <g
     fill="#333333"
     fill-opacity="1"
     id="g30"
     transform="translate(-14.800781,-105.98047)">
    <g
       transform="translate(165.54279,168.7036)"
       id="g29">
      <g
         id="g28">
        <path
           d="M 7.84375,0 H 5.796875 V -15.796875 H 0.21875 v -1.8125 h 13.203125 v 1.8125 H 7.84375 Z m 0,0"
           id="path27" />
      </g>
    </g>
  </g>
  <g
     fill="#333333"
     fill-opacity="1"
     id="g33"
     transform="translate(-14.800781,-105.98047)">
    <g
       transform="translate(180.99132,168.7036)"
       id="g32">
      <g
         id="g31">
        <path
           d="m 12.359375,-4.6875 c 0,1.554688 -0.5625,2.761719 -1.6875,3.625 -1.125,0.867188 -2.652344,1.296875 -4.578125,1.296875 -2.085938,0 -3.6875,-0.265625 -4.8125,-0.796875 V -2.546875 C 2,-2.234375 2.785156,-1.988281 3.640625,-1.8125 c 0.851563,0.179688 1.695313,0.265625 2.53125,0.265625 1.363281,0 2.390625,-0.257813 3.078125,-0.78125 0.6875,-0.519531 1.03125,-1.242187 1.03125,-2.171875 0,-0.601562 -0.125,-1.097656 -0.375,-1.484375 C 9.664062,-6.378906 9.257812,-6.738281 8.6875,-7.0625 8.113281,-7.394531 7.242188,-7.769531 6.078125,-8.1875 4.429688,-8.78125 3.253906,-9.476562 2.546875,-10.28125 1.847656,-11.082031 1.5,-12.128906 1.5,-13.421875 c 0,-1.351563 0.507812,-2.429687 1.53125,-3.234375 1.019531,-0.800781 2.367188,-1.203125 4.046875,-1.203125 1.75,0 3.363281,0.320313 4.84375,0.953125 L 11.28125,-15.125 c -1.460938,-0.601562 -2.875,-0.90625 -4.25,-0.90625 -1.085938,0 -1.933594,0.234375 -2.546875,0.703125 -0.605469,0.460937 -0.90625,1.105469 -0.90625,1.9375 0,0.605469 0.109375,1.105469 0.328125,1.5 0.226562,0.386719 0.609375,0.742187 1.140625,1.0625 C 5.585938,-10.503906 6.40625,-10.144531 7.5,-9.75 c 1.851562,0.65625 3.125,1.367188 3.8125,2.125 0.695312,0.75 1.046875,1.730469 1.046875,2.9375 z m 0,0"
           id="path30" />
      </g>
    </g>
  </g>
  <g
     fill="#333333"
     fill-opacity="1"
     id="g36"
     transform="translate(-14.800781,-105.98047)">
    <g
       transform="translate(196.33143,168.7036)"
       id="g35">
      <g
         id="g34" />
    </g>
  </g>
  <g
     fill="#333333"
     fill-opacity="1"
     id="g39"
     transform="translate(-14.800781,-105.98047)">
    <g
       transform="translate(204.54097,168.7036)"
       id="g38">
      <g
         id="g37">
        <path
           d="m 13.5,0 -2.203125,-5.609375 h -7.0625 L 2.078125,0 H 0 L 6.96875,-17.6875 H 8.6875 L 15.609375,0 Z m -2.84375,-7.4375 -2.046875,-5.46875 c -0.261719,-0.6875 -0.53125,-1.53125 -0.8125,-2.53125 -0.179687,0.773438 -0.433594,1.617188 -0.765625,2.53125 l -2.0625,5.46875 z m 0,0"
           id="path36" />
      </g>
    </g>
  </g>
  <g
     fill="#333333"
     fill-opacity="1"
     id="g42"
     transform="translate(-14.800781,-105.98047)">
    <g
       transform="translate(221.95281,168.7036)"
       id="g41">
      <g
         id="g40">
        <path
           d="M 16.171875,0 H 13.84375 l -9.625,-14.78125 H 4.125 c 0.125,1.742188 0.1875,3.328125 0.1875,4.765625 V 0 H 2.421875 v -17.609375 h 2.3125 l 9.59375,14.71875 H 14.4375 C 14.41406,-3.109375 14.375,-3.804688 14.3125,-4.984375 14.257812,-6.160156 14.242188,-7 14.265625,-7.5 v -10.109375 h 1.90625 z m 0,0"
           id="path39" />
      </g>
    </g>
  </g>
  <g
     fill="#333333"
     fill-opacity="1"
     id="g45"
     transform="translate(-14.800781,-105.98047)">
    <g
       transform="translate(242.35178,168.7036)"
       id="g44">
      <g
         id="g43">
        <path
           d="m 16.484375,-8.96875 c 0,2.90625 -0.792969,5.132812 -2.375,6.671875 C 12.535156,-0.765625 10.265625,0 7.296875,0 h -4.875 V -17.609375 H 7.8125 c 2.738281,0 4.867188,0.761719 6.390625,2.28125 1.519531,1.511719 2.28125,3.632813 2.28125,6.359375 z m -2.171875,0.0625 c 0,-2.289062 -0.578125,-4.019531 -1.734375,-5.1875 -1.148437,-1.164062 -2.859375,-1.75 -5.140625,-1.75 H 4.46875 v 14.078125 h 2.5 c 2.4375,0 4.269531,-0.597656 5.5,-1.796875 1.226562,-1.207031 1.84375,-2.988281 1.84375,-5.34375 z m 0,0"
           id="path42" />
      </g>
    </g>
  </g>
  <g
     fill="#333333"
     fill-opacity="1"
     id="g48"
     transform="translate(-14.800781,-105.98047)">
    <g
       transform="translate(262.13648,168.7036)"
       id="g47">
      <g
         id="g46" />
    </g>
  </g>
  <g
     fill="#333333"
     fill-opacity="1"
     id="g51"
     transform="translate(-14.800781,-105.98047)">
    <g
       transform="translate(270.34601,168.7036)"
       id="g50">
      <g
         id="g49">
        <path
           d="m 2.421875,-17.609375 h 4.96875 c 2.34375,0 4.035156,0.351563 5.078125,1.046875 1.039062,0.699219 1.5625,1.804688 1.5625,3.3125 0,1.042969 -0.292969,1.902344 -0.875,2.578125 -0.585938,0.679687 -1.433594,1.121094 -2.546875,1.328125 v 0.109375 c 2.675781,0.460937 4.015625,1.867187 4.015625,4.21875 0,1.574219 -0.53125,2.804687 -1.59375,3.6875 C 11.96875,-0.441406 10.476562,0 8.5625,0 H 2.421875 Z m 2.046875,7.53125 h 3.375 c 1.445312,0 2.488281,-0.222656 3.125,-0.671875 0.632812,-0.457031 0.953125,-1.222656 0.953125,-2.296875 0,-0.988281 -0.355469,-1.703125 -1.0625,-2.140625 -0.710937,-0.4375 -1.835937,-0.65625 -3.375,-0.65625 H 4.46875 Z m 0,1.734375 V -1.75 h 3.671875 c 1.425781,0 2.5,-0.269531 3.21875,-0.8125 0.71875,-0.550781 1.078125,-1.414062 1.078125,-2.59375 0,-1.09375 -0.371094,-1.894531 -1.109375,-2.40625 C 10.597656,-8.082031 9.476562,-8.34375 7.96875,-8.34375 Z m 0,0"
           id="path48" />
      </g>
    </g>
  </g>
  <g
     fill="#333333"
     fill-opacity="1"
     id="g54"
     transform="translate(-14.800781,-105.98047)">
    <g
       transform="translate(288.13125,168.7036)"
       id="g53">
      <g
         id="g52">
        <path
           d="m 6.90625,-8.8125 4.6875,-8.796875 h 2.21875 l -5.875,10.78125 V 0 H 5.859375 V -6.734375 L 0,-17.609375 h 2.234375 z m 0,0"
           id="path51" />
      </g>
    </g>
  </g>
  <g
     fill="#333333"
     fill-opacity="1"
     id="g57"
     transform="translate(-14.800781,-105.98047)">
    <g
       transform="translate(303.7484,168.7036)"
       id="g56">
      <g
         id="g55">
        <path
           d="M 7.84375,0 H 5.796875 V -15.796875 H 0.21875 v -1.8125 h 13.203125 v 1.8125 H 7.84375 Z m 0,0"
           id="path54" />
      </g>
    </g>
  </g>
  <g
     fill="#333333"
     fill-opacity="1"
     id="g60"
     transform="translate(-14.800781,-105.98047)">
    <g
       transform="translate(319.19693,168.7036)"
       id="g59">
      <g
         id="g58">
        <path
           d="m 12.234375,0 h -9.8125 v -17.609375 h 9.8125 v 1.8125 H 4.46875 V -10.125 h 7.296875 v 1.8125 H 4.46875 v 6.484375 h 7.765625 z m 0,0"
           id="path57" />
      </g>
    </g>
  </g>
  <g
     fill="#333333"
     fill-opacity="1"
     id="g63"
     transform="translate(-14.800781,-105.98047)">
    <g
       transform="translate(334.71773,168.7036)"
       id="g62">
      <g
         id="g61">
        <path
           d="m 12.359375,-4.6875 c 0,1.554688 -0.5625,2.761719 -1.6875,3.625 -1.125,0.867188 -2.652344,1.296875 -4.578125,1.296875 -2.085938,0 -3.6875,-0.265625 -4.8125,-0.796875 V -2.546875 C 2,-2.234375 2.785156,-1.988281 3.640625,-1.8125 c 0.851563,0.179688 1.695313,0.265625 2.53125,0.265625 1.363281,0 2.390625,-0.257813 3.078125,-0.78125 0.6875,-0.519531 1.03125,-1.242187 1.03125,-2.171875 0,-0.601562 -0.125,-1.097656 -0.375,-1.484375 C 9.664062,-6.378906 9.257812,-6.738281 8.6875,-7.0625 8.113281,-7.394531 7.242188,-7.769531 6.078125,-8.1875 4.429688,-8.78125 3.253906,-9.476562 2.546875,-10.28125 1.847656,-11.082031 1.5,-12.128906 1.5,-13.421875 c 0,-1.351563 0.507812,-2.429687 1.53125,-3.234375 1.019531,-0.800781 2.367188,-1.203125 4.046875,-1.203125 1.75,0 3.363281,0.320313 4.84375,0.953125 L 11.28125,-15.125 c -1.460938,-0.601562 -2.875,-0.90625 -4.25,-0.90625 -1.085938,0 -1.933594,0.234375 -2.546875,0.703125 -0.605469,0.460937 -0.90625,1.105469 -0.90625,1.9375 0,0.605469 0.109375,1.105469 0.328125,1.5 0.226562,0.386719 0.609375,0.742187 1.140625,1.0625 C 5.585938,-10.503906 6.40625,-10.144531 7.5,-9.75 c 1.851562,0.65625 3.125,1.367188 3.8125,2.125 0.695312,0.75 1.046875,1.730469 1.046875,2.9375 z m 0,0"
           id="path60" />
      </g>
    </g>
  </g>
</svg>
