<svg xmlns="http://www.w3.org/2000/svg" xmlns:xlink="http://www.w3.org/1999/xlink" width="500" zoomAndPan="magnify" viewBox="0 0 375 374.999991" height="500" preserveAspectRatio="xMidYMid meet" version="1.0"><defs><g/><clipPath id="5599542fff"><path d="M 124.394531 80.273438 L 250.394531 80.273438 L 250.394531 130 L 124.394531 130 Z M 124.394531 80.273438 " clip-rule="nonzero"/></clipPath><clipPath id="f120f5e9f6"><path d="M 124.394531 116 L 250.394531 116 L 250.394531 130 L 124.394531 130 Z M 124.394531 116 " clip-rule="nonzero"/></clipPath><clipPath id="39f39f47b7"><path d="M 153 195 L 243 195 L 243 209.273438 L 153 209.273438 Z M 153 195 " clip-rule="nonzero"/></clipPath><clipPath id="2324c69eca"><path d="M 132 195 L 146 195 L 146 209.273438 L 132 209.273438 Z M 132 195 " clip-rule="nonzero"/></clipPath></defs><g clip-path="url(#5599542fff)"><path fill="#660092" d="M 250.394531 116.609375 C 250.394531 123.824219 244.550781 129.664062 237.328125 129.664062 C 230.109375 129.664062 224.265625 123.824219 224.265625 116.609375 L 219.820312 80.273438 L 238.707031 80.273438 Z M 150.546875 116.609375 C 150.546875 123.824219 144.703125 129.664062 137.480469 129.664062 C 130.261719 129.664062 124.398438 123.824219 124.398438 116.609375 L 136.085938 80.273438 L 154.992188 80.273438 Z M 200.46875 116.609375 L 198.203125 80.273438 L 176.585938 80.273438 L 174.34375 116.609375 C 174.34375 123.824219 180.1875 129.664062 187.40625 129.664062 C 194.625 129.664062 200.46875 123.824219 200.46875 116.609375 Z M 200.46875 116.609375 " fill-opacity="1" fill-rule="evenodd"/></g><g clip-path="url(#f120f5e9f6)"><path fill="#500076" d="M 250.394531 116.609375 C 250.394531 123.824219 244.550781 129.664062 237.328125 129.664062 C 230.109375 129.664062 224.265625 123.824219 224.265625 116.609375 Z M 124.398438 116.609375 L 150.546875 116.609375 C 150.546875 123.824219 144.703125 129.664062 137.480469 129.664062 C 130.261719 129.664062 124.398438 123.824219 124.398438 116.609375 Z M 174.34375 116.609375 L 200.46875 116.609375 C 200.46875 123.824219 194.625 129.664062 187.40625 129.664062 C 180.1875 129.664062 174.34375 123.824219 174.34375 116.609375 Z M 174.34375 116.609375 " fill-opacity="1" fill-rule="evenodd"/></g><g clip-path="url(#39f39f47b7)"><path fill="#ff781f" d="M 242.75 209.273438 L 153.804688 209.273438 L 153.804688 195.667969 C 183.46875 195.667969 213.109375 195.667969 242.75 195.667969 Z M 242.75 209.273438 " fill-opacity="1" fill-rule="nonzero"/></g><path fill="#ff781f" d="M 153.804688 141.21875 L 215.523438 141.21875 L 215.523438 154.828125 L 153.804688 154.828125 Z M 153.804688 141.21875 " fill-opacity="1" fill-rule="nonzero"/><path fill="#ff781f" d="M 153.804688 168.433594 L 215.523438 168.433594 L 215.523438 182.039062 L 153.804688 182.039062 Z M 153.804688 168.433594 " fill-opacity="1" fill-rule="nonzero"/><path fill="#ff781f" d="M 132.0625 141.21875 L 145.675781 141.21875 L 145.675781 154.828125 L 132.0625 154.828125 Z M 132.0625 141.21875 " fill-opacity="1" fill-rule="evenodd"/><g clip-path="url(#2324c69eca)"><path fill="#ff781f" d="M 132.0625 195.667969 L 145.675781 195.667969 L 145.675781 209.273438 L 132.0625 209.273438 Z M 132.0625 195.667969 " fill-opacity="1" fill-rule="evenodd"/></g><path fill="#ff781f" d="M 132.0625 168.433594 L 145.675781 168.433594 L 145.675781 182.039062 L 132.0625 182.039062 Z M 132.0625 168.433594 " fill-opacity="1" fill-rule="evenodd"/><path fill="#ff781f" d="M 229.136719 168.433594 L 242.75 168.433594 L 242.75 182.039062 L 229.136719 182.039062 Z M 229.136719 168.433594 " fill-opacity="1" fill-rule="evenodd"/><path fill="#ff781f" d="M 229.136719 141.21875 L 242.75 141.21875 L 242.75 154.828125 L 229.136719 154.828125 Z M 229.136719 141.21875 " fill-opacity="1" fill-rule="evenodd"/><g fill="#281350" fill-opacity="1"><g transform="translate(65.100267, 267.67258)"><g><path d="M 20.808594 0.71875 C 30.265625 0.71875 37.613281 -5.035156 39.410156 -13.769531 L 30.984375 -13.769531 C 29.492188 -9.660156 25.691406 -7.039062 20.964844 -7.039062 C 14.847656 -7.039062 10.535156 -11.507812 10.535156 -17.984375 C 10.535156 -24.457031 14.902344 -28.929688 21.015625 -28.929688 C 25.589844 -28.929688 29.339844 -26.460938 30.726562 -22.503906 L 39.152344 -22.503906 C 37.097656 -31.136719 29.90625 -36.6875 20.757812 -36.6875 C 9.867188 -36.6875 2.210938 -28.980469 2.210938 -17.984375 C 2.210938 -6.988281 9.867188 0.71875 20.808594 0.71875 Z M 20.808594 0.71875 "/></g></g></g><g fill="#281350" fill-opacity="1"><g transform="translate(105.018272, 267.67258)"><g><path d="M 12.898438 0.515625 C 16.90625 0.515625 20.191406 -0.769531 22.503906 -3.132812 L 23.378906 0 L 29.183594 0 L 29.183594 -16.238281 C 29.183594 -23.378906 24.355469 -27.695312 16.289062 -27.695312 C 9.402344 -27.695312 4.882812 -24.40625 3.90625 -18.550781 L 11.40625 -18.550781 C 11.871094 -20.449219 13.820312 -21.734375 16.339844 -21.734375 C 19.421875 -21.734375 21.527344 -19.988281 21.527344 -17.316406 L 21.527344 -16.082031 L 11.765625 -16.082031 C 6.164062 -16.082031 2.570312 -12.84375 2.570312 -7.863281 C 2.570312 -2.671875 6.527344 0.515625 12.898438 0.515625 Z M 10.277344 -8.167969 C 10.277344 -10.019531 11.816406 -11.203125 14.179688 -11.203125 L 21.582031 -11.203125 C 21.425781 -7.554688 18.601562 -5.085938 14.695312 -5.085938 C 12.023438 -5.085938 10.277344 -6.320312 10.277344 -8.167969 Z M 10.277344 -8.167969 "/></g></g></g><g fill="#281350" fill-opacity="1"><g transform="translate(136.048396, 267.67258)"><g><path d="M 16.90625 0 L 21.835938 0 L 21.835938 -6.78125 L 18.601562 -6.78125 C 15.515625 -6.78125 14.078125 -8.273438 14.078125 -11.40625 L 14.078125 -20.605469 L 21.476562 -20.605469 L 21.476562 -26.976562 L 14.078125 -26.976562 L 14.078125 -33.964844 L 8.015625 -33.964844 L 7.554688 -30.46875 C 7.140625 -27.695312 6.371094 -26.976562 3.441406 -26.976562 L 1.027344 -26.976562 L 1.027344 -20.605469 L 6.269531 -20.605469 L 6.269531 -10.226562 C 6.269531 -3.648438 10.070312 0 16.90625 0 Z M 16.90625 0 "/></g></g></g><g fill="#281350" fill-opacity="1"><g transform="translate(158.498882, 267.67258)"><g><path d="M 16.648438 0.71875 C 23.277344 0.71875 28.515625 -2.671875 30.882812 -8.375 L 22.96875 -8.375 C 21.683594 -6.578125 19.371094 -5.550781 16.800781 -5.550781 C 13.257812 -5.550781 10.480469 -7.554688 9.761719 -11.253906 L 31.394531 -11.253906 C 31.855469 -21.117188 26 -27.695312 16.75 -27.695312 C 8.015625 -27.695312 2.003906 -21.890625 2.003906 -13.511719 C 2.003906 -5.085938 7.964844 0.71875 16.648438 0.71875 Z M 9.8125 -16.183594 C 10.6875 -19.472656 13.359375 -21.476562 16.800781 -21.476562 C 20.398438 -21.476562 22.96875 -19.472656 23.839844 -16.183594 Z M 9.8125 -16.183594 "/></g></g></g><g fill="#281350" fill-opacity="1"><g transform="translate(190.299631, 267.67258)"><g><path d="M 17.058594 11.40625 C 25.691406 11.40625 31.1875 6.578125 31.1875 -1.488281 L 31.1875 -26.976562 L 25.382812 -26.976562 L 24.5625 -23.996094 C 22.195312 -26.359375 18.910156 -27.695312 15.054688 -27.695312 C 7.449219 -27.695312 2.003906 -22.09375 2.003906 -14.234375 C 2.003906 -6.320312 7.449219 -0.71875 15.054688 -0.71875 C 18.292969 -0.71875 21.167969 -1.695312 23.378906 -3.390625 L 23.378906 -1.488281 C 23.378906 2.878906 21.167969 5.085938 16.90625 5.085938 C 13.667969 5.085938 11.507812 3.75 10.945312 1.386719 L 3.339844 1.386719 C 4.007812 7.605469 9.25 11.40625 17.058594 11.40625 Z M 9.710938 -14.234375 C 9.710938 -18.34375 12.589844 -21.222656 16.699219 -21.222656 C 20.808594 -21.222656 23.738281 -18.34375 23.738281 -14.234375 C 23.738281 -10.070312 20.808594 -7.195312 16.699219 -7.195312 C 12.589844 -7.195312 9.710938 -10.070312 9.710938 -14.234375 Z M 9.710938 -14.234375 "/></g></g></g><g fill="#281350" fill-opacity="1"><g transform="translate(223.898509, 267.67258)"><g><path d="M 17.160156 0.71875 C 26.101562 0.71875 32.269531 -5.085938 32.269531 -13.511719 C 32.269531 -21.890625 26.101562 -27.695312 17.160156 -27.695312 C 8.167969 -27.695312 2.003906 -21.890625 2.003906 -13.511719 C 2.003906 -5.085938 8.167969 0.71875 17.160156 0.71875 Z M 9.710938 -13.511719 C 9.710938 -17.933594 12.792969 -21.015625 17.160156 -21.015625 C 21.527344 -21.015625 24.5625 -17.933594 24.5625 -13.511719 C 24.5625 -9.09375 21.527344 -6.011719 17.160156 -6.011719 C 12.792969 -6.011719 9.710938 -9.09375 9.710938 -13.511719 Z M 9.710938 -13.511719 "/></g></g></g><g fill="#281350" fill-opacity="1"><g transform="translate(256.624009, 267.67258)"><g><path d="M 3.90625 0 L 11.714844 0 L 11.714844 -11.921875 C 11.714844 -17.726562 14.4375 -19.886719 18.910156 -19.886719 L 21.890625 -19.886719 L 21.890625 -26.976562 L 18.960938 -26.976562 C 15.003906 -26.976562 12.484375 -25.898438 10.738281 -23.378906 L 9.710938 -26.976562 L 3.90625 -26.976562 Z M 3.90625 0 "/></g></g></g><g fill="#281350" fill-opacity="1"><g transform="translate(278.71487, 267.67258)"><g><path d="M 4.007812 10.277344 L 7.65625 10.277344 C 13.925781 10.277344 16.546875 8.734375 18.753906 3.1875 L 30.777344 -26.976562 L 22.402344 -26.976562 L 18.804688 -17.160156 L 16.339844 -10.277344 L 9.09375 -26.976562 L 0.460938 -26.976562 L 12.589844 -0.875 L 12.28125 0.0507812 C 11.355469 2.722656 10.277344 3.546875 7.089844 3.546875 L 4.007812 3.546875 Z M 4.007812 10.277344 "/></g></g></g></svg>